# xmcd
#
# Track frame offsets:
#	150
#	24180
#	48537
#	72962
#	91107
#	116177
#	141397
#	159967
#	180102
#	199915
#
# Disc length: 3039 seconds
#
# Revision: 2
# Processed by: cddbd v1.5.2PL0 Copyright (c) Steve Scherf et al.
# Submitted via: EZCDAudioConverter 8.0.2.1
#
DISCID=7f0bdd0a
DTITLE=Chế Linh - Hát Cho người Tình Phụ 3
DYEAR=1998
DGENRE=Miscellaneous
TTITLE0=Chế Linh - Nếu một ngày
TTITLE1=Chế Linh - Bài cuối cho cuộc tình
TTITLE2=Hương Lan - Hoa học trò
TTITLE3=Chế Linh - Đêm nay ai đưa em về
TTITLE4=Chế Linh - Chuyện tình buồn
TTITLE5=Chế Linh - Sài Gòn niềm nhớ không tên
TTITLE6=Chế Linh - Cho hỏi vì sao tôi buồn
TTITLE7=Hương Lan - Gió cuốn mây trôi
TTITLE8=Chế Linh - Như giọt sầu rơi
TTITLE9=Chế Linh - Trả lại em yêu
EXTD=
EXTT0=
EXTT1=
EXTT2=
EXTT3=
EXTT4=
EXTT5=
EXTT6=
EXTT7=
EXTT8=
EXTT9=
PLAYORDER=
